<?xml version="1.0" standalone="no"?>
<!DOCTYPE svg PUBLIC "-//W3C//DTD SVG 20010904//EN"
 "http://www.w3.org/TR/2001/REC-SVG-20010904/DTD/svg10.dtd">
<svg version="1.0" xmlns="http://www.w3.org/2000/svg"
 width="512.000000pt" height="512.000000pt" viewBox="0 0 512.000000 512.000000"
 preserveAspectRatio="xMidYMid meet">
<metadata>
Created by potrace 1.11, written by Peter Selinger 2001-2013
</metadata>
<g transform="translate(0.000000,512.000000) scale(0.100000,-0.100000)"
fill="#000000" stroke="none">
<path d="M415 5110 c-183 -38 -330 -170 -391 -350 -18 -53 -19 -134 -19 -2200
0 -2066 1 -2147 19 -2200 52 -154 168 -274 322 -332 l59 -23 2155 0 2155 0 59
23 c154 58 270 178 322 332 18 53 19 134 19 2200 0 2066 -1 2147 -19 2200 -52
154 -168 274 -322 332 l-59 23 -2130 1 c-1172 1 -2148 -2 -2170 -6z m863 -816
c48 -33 17 -74 -57 -74 -72 0 -110 61 -48 79 49 14 80 13 105 -5z m-184 -27
c14 -23 -13 -45 -67 -54 -21 -3 -49 -14 -62 -25 -30 -24 -65 -134 -65 -206 0
-54 -17 -105 -33 -99 -6 2 -16 23 -23 48 -6 24 -20 64 -29 89 -22 58 -14 127
20 186 22 37 33 46 78 58 102 29 164 30 181 3z m2919 -70 c18 -8 35 -14 40
-15 76 -14 127 -120 142 -292 8 -86 1 -108 -50 -176 -20 -26 -39 -60 -42 -76
-3 -16 -15 -34 -26 -40 -33 -17 -207 -30 -457 -33 -129 -1 -248 -7 -265 -12
l-30 -9 -5 -105 c-4 -87 -9 -109 -27 -135 -13 -17 -38 -65 -58 -105 -58 -121
-46 -233 38 -342 49 -64 65 -125 73 -275 6 -114 4 -136 -17 -217 -29 -114 -32
-248 -7 -287 14 -21 18 -57 22 -186 2 -88 7 -165 10 -170 6 -11 26 -312 31
-491 4 -98 2 -104 -20 -127 -17 -17 -35 -24 -64 -24 -22 0 -43 5 -46 10 -10
16 -68 12 -95 -7 -14 -9 -37 -27 -51 -40 -25 -23 -35 -24 -165 -28 -175 -4
-442 -22 -512 -33 -30 -5 -105 -7 -167 -4 -135 6 -174 23 -215 92 -18 30 -36
48 -58 55 -41 14 -80 51 -86 84 -15 71 -28 386 -26 632 0 152 -4 351 -10 441
-15 212 -5 311 44 436 47 119 48 170 4 238 -52 81 -58 117 -58 336 0 117 -4
207 -10 218 -10 18 -20 19 -151 15 -77 -3 -199 -10 -272 -16 -164 -14 -223
-13 -314 7 -88 19 -89 21 -99 199 -13 231 -11 264 18 327 36 78 59 90 178 97
54 3 109 3 122 0 13 -3 45 -1 72 4 30 5 79 5 125 -1 46 -6 143 -7 246 -2 179
8 330 5 380 -9 131 -37 272 -40 364 -7 24 9 67 16 97 16 29 0 65 5 81 11 17 7
130 13 286 15 242 3 260 3 285 -15 15 -11 54 -25 86 -31 71 -14 123 -2 174 42
28 24 41 28 100 29 115 1 296 10 301 15 9 8 52 4 84 -9z m286 -311 c8 -10 12
-50 10 -118 -1 -57 1 -133 6 -170 l7 -67 -33 -31 c-19 -17 -51 -42 -71 -56
-36 -25 -39 -26 -88 -13 -40 10 -55 10 -70 1 -25 -15 -25 -15 -44 4 -42 42 13
111 78 98 50 -9 102 20 138 75 29 45 30 48 24 143 -8 123 9 175 43 134z m-836
-494 c13 -15 15 -38 12 -143 -2 -84 1 -145 11 -185 7 -32 14 -108 14 -168 0
-61 5 -136 12 -168 13 -61 9 -71 -27 -82 -35 -10 -43 6 -53 117 -8 101 -11
110 -40 140 -57 60 -66 151 -26 262 13 39 29 105 34 148 5 43 12 82 15 87 9
15 30 12 48 -8z m75 -867 c5 -42 -6 -73 -29 -80 -31 -10 -49 12 -49 61 0 56
23 81 54 61 11 -8 22 -27 24 -42z m-1678 -1464 c0 -15 11 -26 40 -37 29 -12
46 -27 60 -54 25 -50 65 -80 104 -80 18 0 41 -6 51 -14 18 -13 17 -14 -11 -28
-47 -24 -87 -28 -148 -14 -89 21 -135 74 -157 178 -6 29 -17 63 -25 75 -15 24
-19 65 -7 77 12 11 93 -80 93 -103z m628 -198 c2 -16 -5 -26 -30 -39 -27 -14
-49 -16 -129 -10 -54 3 -105 9 -114 12 -35 14 -4 29 72 36 44 4 91 12 104 17
13 6 40 9 59 8 28 -2 36 -7 38 -24z"/>
<path d="M3861 4047 c-24 -7 -49 -19 -54 -28 -17 -27 10 -78 49 -94 19 -8 34
-18 34 -24 0 -16 30 -41 51 -41 37 0 59 35 59 95 0 46 -4 60 -25 80 -26 27
-47 29 -114 12z"/>
<path d="M1212 3864 c-20 -13 -22 -24 -22 -92 l1 -77 43 -27 c54 -35 89 -35
158 -3 29 14 61 25 70 25 10 0 20 10 24 24 10 41 -3 49 -60 41 -102 -14 -98
-16 -130 50 -37 78 -47 85 -84 59z"/>
<path d="M1730 3774 c-83 -36 -60 -84 30 -62 37 10 40 13 40 44 0 39 -14 43
-70 18z"/>
<path d="M3072 2245 c-17 -36 -15 -49 9 -71 20 -18 21 -18 35 1 17 22 18 49 4
76 -15 26 -35 24 -48 -6z"/>
<path d="M3014 1996 c-16 -13 -19 -25 -17 -97 2 -45 8 -109 14 -143 5 -33 14
-103 18 -154 6 -69 13 -100 28 -120 46 -62 84 -16 91 112 4 69 -9 176 -43 361
-2 11 -17 28 -34 38 -35 21 -33 20 -57 3z"/>
<path d="M2223 1319 c-55 -20 -49 -81 12 -119 20 -13 45 -32 55 -42 23 -25 45
-26 145 -4 89 19 105 29 108 72 2 25 -4 32 -45 54 l-47 24 -50 -18 c-51 -18
-69 -15 -111 19 -23 19 -43 23 -67 14z"/>
</g>
</svg>
